<svg width="20" height="20" viewBox="0 0 20 20" fill="none" xmlns="http://www.w3.org/2000/svg">
<path d="M9.99968 1.83333C9.75058 1.83149 9.50607 1.90037 9.29454 2.03194C9.08301 2.16352 8.91315 2.35241 8.80468 2.57666L6.95302 6.33L2.80968 6.93166C2.56324 6.96717 2.33166 7.07098 2.14118 7.23133C1.95069 7.39168 1.80891 7.60216 1.73189 7.83894C1.65488 8.07572 1.6457 8.32933 1.7054 8.57106C1.7651 8.81278 1.89129 9.03296 2.06968 9.20666L5.06968 12.1283L4.36135 16.255C4.31922 16.5001 4.34648 16.7521 4.44007 16.9826C4.53366 17.213 4.68984 17.4127 4.89096 17.559C5.09208 17.7053 5.33012 17.7925 5.57818 17.8106C5.82623 17.8288 6.07442 17.7772 6.29468 17.6617L9.99968 15.7133V1.83333Z" fill="#FFAD33"/>
<path opacity="0.25" d="M10.0002 1.83594C10.2493 1.83403 10.5002 2 10.5002 2C10.5002 2 11.0867 2.20806 11.1952 2.44194L13.0469 6.35633L17.1903 6.98381C17.4367 7.02085 17.6683 7.12911 17.8588 7.29634C18.0493 7.46357 18.1911 7.68308 18.2681 7.93002C18.3451 8.17696 18.3543 8.44145 18.2946 8.69355C18.2349 8.94565 18.1087 9.17528 17.9303 9.35644L14.9303 12.4035L15.6386 16.7072C15.6807 16.9629 15.6535 17.2257 15.5599 17.466C15.4663 17.7064 15.3101 17.9146 15.109 18.0672C14.9079 18.2198 14.6698 18.3107 14.4218 18.3296C14.1737 18.3485 13.9255 18.2947 13.7052 18.1743L10.0002 16.1423V1.83594Z" fill="black"/>
</svg>
