<svg width="20" height="20" viewBox="0 0 20 20" fill="none" xmlns="http://www.w3.org/2000/svg">
<path d="M9.99968 1.83332C9.75058 1.83148 9.50607 1.90035 9.29454 2.03193C9.08301 2.16351 8.91315 2.35239 8.80468 2.57665L6.95302 6.32998L2.80968 6.93165C2.56324 6.96716 2.33166 7.07097 2.14118 7.23132C1.95069 7.39167 1.80891 7.60215 1.73189 7.83893C1.65488 8.0757 1.6457 8.32932 1.7054 8.57104C1.7651 8.81277 1.89129 9.03295 2.06968 9.20665L5.06968 12.1283L4.36135 16.255C4.31922 16.5001 4.34648 16.7521 4.44007 16.9826C4.53366 17.213 4.68984 17.4127 4.89096 17.559C5.09208 17.7053 5.33012 17.7925 5.57818 17.8106C5.82623 17.8288 6.07442 17.7772 6.29468 17.6617L9.99968 15.7133V1.83332Z" fill="#FFAD33"/>
<path opacity="0.25" d="M10.0002 1.83592C10.2493 1.83401 10.5002 1.99998 10.5002 1.99998C10.5002 1.99998 11.0867 2.20804 11.1952 2.44192L13.0469 6.35631L17.1903 6.9838C17.4367 7.02083 17.6683 7.12909 17.8588 7.29632C18.0493 7.46355 18.1911 7.68306 18.2681 7.93C18.3451 8.17694 18.3543 8.44144 18.2946 8.69354C18.2349 8.94564 18.1087 9.17527 17.9303 9.35642L14.9303 12.4035L15.6386 16.7072C15.6807 16.9628 15.6535 17.2257 15.5599 17.466C15.4663 17.7063 15.3101 17.9146 15.109 18.0672C14.9079 18.2198 14.6698 18.3107 14.4218 18.3296C14.1737 18.3485 13.9255 18.2947 13.7052 18.1742L10.0002 16.1423V1.83592Z" fill="black"/>
</svg>
